<svg id="Layer_1" data-name="Layer 1" xmlns="http://www.w3.org/2000/svg" xmlns:xlink="http://www.w3.org/1999/xlink" viewBox="0 0 403.059 194.597"><defs><style>.cls-1{fill:none;}.cls-2{clip-path:url(#clip-path);}.cls-3{fill:#fff;}.cls-3,.cls-4{stroke:#000;stroke-miterlimit:10;}.cls-4{stroke-width:1.395px;}</style><clipPath id="clip-path" transform="translate(-75.658 -130.143)"><path class="cls-1" d="M322.668,138.6c66.238-24.287,174.341,120.93,152.17,154.186s-397.054,13.1-397.054,13.1S262.2,160.766,322.668,138.6Z"/></clipPath></defs><title>eye_01</title><g class="cls-2"><circle class="cls-3" cx="176.038" cy="119.097" r="75"/></g><path d="M320.795,132.812c1.632-.477,3.05-0.979,5.172-1.419a52.435,52.435,0,0,1,5.692-.964,61.415,61.415,0,0,1,11.142-.063,74.3,74.3,0,0,1,10.732,1.874,83.106,83.106,0,0,1,10.149,3.326,116.485,116.485,0,0,1,18.625,9.507,161.09,161.09,0,0,1,16.737,11.984,241.624,241.624,0,0,1,29.212,28.316A286.267,286.267,0,0,1,452.8,217.518c3.711,5.624,7.143,11.427,10.4,17.323a173.505,173.505,0,0,1,8.772,18.207,100.276,100.276,0,0,1,5.947,19.369,45.431,45.431,0,0,1,.752,10.2,20.88,20.88,0,0,1-2.782,9.955,11.636,11.636,0,0,1-3.691,3.8,27.942,27.942,0,0,1-4.534,2.431,66.842,66.842,0,0,1-9.6,3.208,200.742,200.742,0,0,1-19.734,3.883c-6.626.975-13.269,1.793-19.924,2.5q-9.984,1.034-19.989,1.829c-13.339,1.056-26.7,1.829-40.063,2.423q-10.024.458-20.053,0.724c-6.686.179-13.372,0.353-20.059,0.417q-10.03.119-20.06,0.153l-20.058-.093q-20.057-.159-40.107-0.557c-13.367-.269-26.733-0.561-40.094-0.99s-26.72-.928-40.077-1.47-26.711-.968-40.059-1.682S91.088,308,77.746,307h0l-2.084-.169,1.634-1.494c4.692-4.057,9.38-8.156,14.125-12.145,4.732-4.006,9.479-8.013,14.256-11.964l14.355-11.835,14.456-11.709q7.232-5.849,14.548-11.595l14.628-11.5q7.332-5.73,14.743-11.357l14.829-11.255c9.915-7.472,19.944-14.794,30.034-22.056,5.057-3.615,10.105-7.243,15.217-10.794s10.256-7.059,15.471-10.468,10.48-6.757,15.831-9.993l4.011-2.423,4.058-2.366c2.716-1.559,5.423-3.127,8.192-4.621s5.486-3.046,8.306-4.478c2.8-1.457,5.58-2.928,8.465-4.283l4.287-2.073,4.409-1.938c2.883-1.344,6.033-2.42,9.064-3.6Zm3.967,11.491c-2.685,1.2-5.371,2.218-8.046,3.611l-4.014,1.971-3.986,2.145c-2.665,1.391-5.293,2.932-7.926,4.446-2.643,1.483-5.243,3.1-7.854,4.672-2.618,1.557-5.2,3.2-7.79,4.838l-3.9,2.422-3.873,2.484c-5.193,3.256-10.327,6.638-15.52,9.926l-15.506,10.027c-5.186,3.323-10.344,6.706-15.5,10.091q-7.721,5.1-15.407,10.266L200.087,221.57l-15.31,10.454-15.266,10.533-15.246,10.575-15.216,10.629-60.772,42.7L77.828,305h0l40.055,1.467,40.061,1.254q20.031,0.572,40.065,1c13.355,0.278,26.709.593,40.065,0.787s26.711,0.347,40.065.4l20.031,0.014,20.029-.038,20.027-.129,20.024-.25c13.348-.224,26.7-0.6,40.025-1.307,6.665-.342,13.325-0.788,19.97-1.382s13.283-1.282,19.878-2.261a166.946,166.946,0,0,0,19.579-3.863,65.478,65.478,0,0,0,9.354-3.243,26.482,26.482,0,0,0,4.261-2.344,9.817,9.817,0,0,0,3.186-3.357,19.178,19.178,0,0,0,2.308-9.208,43.494,43.494,0,0,0-.964-9.724,91.427,91.427,0,0,0-6.336-18.713,194.542,194.542,0,0,0-20.254-34.139,280.53,280.53,0,0,0-25.584-30.343,234.344,234.344,0,0,0-29.749-25.877,159.9,159.9,0,0,0-16.424-10.5,106.576,106.576,0,0,0-17.441-7.87,79.54,79.54,0,0,0-9.013-2.507,63.262,63.262,0,0,0-9.056-1.2,49.966,49.966,0,0,0-8.866.414,41.343,41.343,0,0,0-4.152.879,45.913,45.913,0,0,0-4.433,1.42Z" transform="translate(-75.658 -130.143)"/><circle class="cls-4" cx="158.827" cy="136.081" r="36.953"/></svg>