<svg id="Layer_1" data-name="Layer 1" xmlns="http://www.w3.org/2000/svg" xmlns:xlink="http://www.w3.org/1999/xlink" viewBox="0 0 1136.489 203.271"><defs><style>.cls-1{fill:none;}.cls-2{clip-path:url(#clip-path);}.cls-3,.cls-6{fill:#fff;}.cls-3,.cls-4,.cls-6,.cls-7{stroke:#000;stroke-miterlimit:10;}.cls-4{stroke-width:1.395px;}.cls-5{clip-path:url(#clip-path-2);}.cls-6{stroke-width:0.597px;}.cls-7{stroke-width:0.832px;}.cls-8{clip-path:url(#clip-path-3);}</style><clipPath id="clip-path" transform="translate(-65.229 -121.469)"><path class="cls-1" d="M1045.668,138.6c66.238-24.287,174.341,120.93,152.17,154.186s-397.054,13.1-397.054,13.1S985.2,160.766,1045.668,138.6Z"/></clipPath><clipPath id="clip-path-2" transform="translate(-65.229 -121.469)"><path class="cls-1" d="M464.19,127.376c39.525-14.492,104.031,72.16,90.8,92S318.065,227.2,318.065,227.2,428.11,140.605,464.19,127.376Z"/></clipPath><clipPath id="clip-path-3" transform="translate(-65.229 -121.469)"><path class="cls-1" d="M158.345,126.5c-39.525-14.492-104.031,72.16-90.8,92s236.927,7.817,236.927,7.817S194.425,139.726,158.345,126.5Z"/></clipPath></defs><title>eyes_01</title><g class="cls-2"><circle class="cls-3" cx="909.468" cy="127.771" r="75"/></g><path d="M1043.795,132.812c1.632-.477,3.05-0.979,5.172-1.419a52.435,52.435,0,0,1,5.692-.964,61.415,61.415,0,0,1,11.142-.063,74.3,74.3,0,0,1,10.732,1.874,83.106,83.106,0,0,1,10.149,3.326,116.485,116.485,0,0,1,18.625,9.507,161.09,161.09,0,0,1,16.737,11.984,241.624,241.624,0,0,1,29.212,28.316,286.267,286.267,0,0,1,24.545,32.145c3.711,5.624,7.143,11.427,10.4,17.323a173.505,173.505,0,0,1,8.772,18.207,100.276,100.276,0,0,1,5.947,19.369,45.431,45.431,0,0,1,.752,10.2,20.88,20.88,0,0,1-2.782,9.955,11.636,11.636,0,0,1-3.691,3.8,27.942,27.942,0,0,1-4.534,2.431,66.842,66.842,0,0,1-9.6,3.208,200.742,200.742,0,0,1-19.734,3.883c-6.626.975-13.269,1.793-19.924,2.5q-9.984,1.034-19.989,1.829c-13.339,1.056-26.7,1.829-40.063,2.423q-10.024.458-20.053,0.724c-6.686.179-13.372,0.353-20.059,0.417q-10.03.119-20.06,0.153l-20.058-.093q-20.057-.159-40.107-0.557c-13.367-.269-26.733-0.561-40.094-0.99s-26.72-.928-40.077-1.47-26.711-.968-40.059-1.682S814.088,308,800.746,307h0l-2.084-.169,1.634-1.494c4.692-4.057,9.38-8.156,14.125-12.145,4.732-4.006,9.479-8.013,14.256-11.964l14.355-11.835,14.456-11.709q7.232-5.849,14.548-11.595l14.628-11.5q7.332-5.73,14.743-11.357l14.829-11.255c9.915-7.472,19.944-14.794,30.034-22.056,5.057-3.615,10.105-7.243,15.217-10.794s10.256-7.059,15.471-10.468,10.48-6.757,15.831-9.993l4.011-2.423,4.058-2.366c2.716-1.559,5.423-3.127,8.192-4.621s5.486-3.046,8.306-4.478c2.8-1.457,5.58-2.928,8.465-4.283l4.287-2.073,4.409-1.938c2.883-1.344,6.033-2.42,9.064-3.6Zm3.967,11.491c-2.685,1.2-5.371,2.218-8.046,3.611l-4.014,1.971-3.986,2.145c-2.665,1.391-5.293,2.932-7.926,4.446-2.643,1.483-5.243,3.1-7.854,4.672-2.618,1.557-5.2,3.2-7.79,4.838l-3.9,2.422-3.873,2.484c-5.193,3.256-10.327,6.638-15.52,9.926l-15.506,10.027c-5.186,3.323-10.344,6.706-15.5,10.091q-7.721,5.1-15.407,10.266L923.087,221.57l-15.31,10.454-15.266,10.533-15.246,10.575-15.216,10.629-60.772,42.7L800.828,305h0l40.055,1.467,40.061,1.254q20.031,0.572,40.065,1c13.355,0.278,26.709.593,40.065,0.787s26.711,0.347,40.065.4l20.031,0.014,20.029-.038,20.027-.129,20.024-.25c13.348-.224,26.7-0.6,40.025-1.307,6.665-.342,13.325-0.788,19.97-1.382s13.283-1.282,19.878-2.261a166.946,166.946,0,0,0,19.579-3.863,65.478,65.478,0,0,0,9.354-3.243,26.482,26.482,0,0,0,4.261-2.344,9.817,9.817,0,0,0,3.186-3.357,19.178,19.178,0,0,0,2.308-9.208,43.494,43.494,0,0,0-.964-9.724,91.427,91.427,0,0,0-6.336-18.713,194.542,194.542,0,0,0-20.254-34.139,280.53,280.53,0,0,0-25.584-30.343,234.344,234.344,0,0,0-29.749-25.877,159.9,159.9,0,0,0-16.424-10.5,106.576,106.576,0,0,0-17.441-7.87,79.54,79.54,0,0,0-9.013-2.507,63.262,63.262,0,0,0-9.056-1.2,49.966,49.966,0,0,0-8.866.414,41.343,41.343,0,0,0-4.152.879,45.913,45.913,0,0,0-4.433,1.42Z" transform="translate(-65.229 -121.469)"/><circle class="cls-4" cx="892.257" cy="144.755" r="36.953"/><g class="cls-5"><circle class="cls-6" cx="356.612" cy="71.93" r="44.753"/></g><path d="M463.072,123.925a33.786,33.786,0,0,1,6.484-1.412,36.628,36.628,0,0,1,6.646-.027,45.833,45.833,0,0,1,12.451,3.109,81.785,81.785,0,0,1,21.11,12.8,144.182,144.182,0,0,1,17.431,16.9,170.822,170.822,0,0,1,14.646,19.181c2.214,3.356,4.262,6.819,6.2,10.337a103.53,103.53,0,0,1,5.234,10.864,59.838,59.838,0,0,1,3.549,11.557,27.115,27.115,0,0,1,.45,6.087,12.46,12.46,0,0,1-1.659,5.94l-0.2.339a3.125,3.125,0,0,1-.269.333l-0.488.566c-0.37.362-.83,0.693-1.246,1.032l-1.329.79c-0.454.234-.921,0.435-1.381,0.654a38.964,38.964,0,0,1-5.73,1.91A117.07,117.07,0,0,1,533.2,227.2c-7.907,1.16-15.853,2-23.814,2.6s-15.931,1.078-23.907,1.434-15.955.569-23.935,0.68-15.96.111-23.939,0.038-15.956-.179-23.932-0.333-15.951-.334-23.924-0.59l-23.914-.877c-7.97-.321-15.938-0.509-23.9-0.945S326.008,228,318.046,228h-1.256l0.982-1.012c2.8-2.419,5.594-4.929,8.434-7.3l8.512-7.161,8.556-7.09,8.626-6.994c5.761-4.644,11.581-9.219,17.41-13.783q4.375-3.419,8.8-6.779l8.849-6.717c5.916-4.459,11.9-8.828,17.921-13.162,3.017-2.157,6.03-4.322,9.08-6.441s6.12-4.212,9.232-6.247,6.254-4.032,9.446-5.963,6.418-3.811,9.7-5.615c1.645-.9,3.273-1.818,4.956-2.672s3.33-1.747,5.051-2.556l2.558-1.237,2.631-1.156c1.72-.8,3.6-1.444,5.409-2.147Zm2.367,6.857c-1.6.713-3.2,1.323-4.8,2.155l-2.4,1.176-2.378,1.28c-1.59.83-3.158,1.75-4.729,2.653-1.577.885-3.128,1.849-4.687,2.788s-3.1,1.912-4.649,2.887q-2.331,1.434-4.637,2.928L427.9,152.57l-9.253,5.983c-3.095,1.983-6.172,4-9.249,6.021l-9.193,6.126-9.162,6.187-9.136,6.238-9.109,6.285-18.177,12.653-18.148,12.72L318.359,227.71l-0.268-.71H318.1c7.963,0,15.933.468,23.9,0.72l23.9,0.658,23.907,0.554,23.907,0.448q11.954,0.183,23.907.229l23.9-.022q11.951-.053,23.9-0.228c7.964-.147,15.93-0.338,23.882-0.8s15.9-1,23.777-2.164a97.706,97.706,0,0,0,11.68-2.31,38.152,38.152,0,0,0,5.581-1.931c0.437-.215.885-0.414,1.314-0.64l1.234-.752c0.346-.3.711-0.546,1.051-0.877l0.481-.572a2.335,2.335,0,0,0,.2-0.248l0.172-.309a11.444,11.444,0,0,0,1.376-5.5,25.958,25.958,0,0,0-.576-5.8,54.557,54.557,0,0,0-3.781-11.166,116.085,116.085,0,0,0-12.086-20.37,167.4,167.4,0,0,0-15.266-18.106,139.837,139.837,0,0,0-17.751-15.44,97.137,97.137,0,0,0-9.8-6.268,63.627,63.627,0,0,0-10.4-4.718,39.427,39.427,0,0,0-10.79-2.207,29.823,29.823,0,0,0-5.293.258,25.848,25.848,0,0,0-5.121,1.382Z" transform="translate(-65.229 -121.469)"/><circle class="cls-7" cx="346.342" cy="82.065" r="22.05"/><g class="cls-8"><circle class="cls-6" cx="135.466" cy="71.051" r="44.753"/></g><path d="M157.227,129.948a25.847,25.847,0,0,0-5.121-1.382,29.822,29.822,0,0,0-5.293-.258,39.427,39.427,0,0,0-10.79,2.207,63.629,63.629,0,0,0-10.4,4.718,97.14,97.14,0,0,0-9.8,6.268,139.835,139.835,0,0,0-17.751,15.44,167.392,167.392,0,0,0-15.266,18.106,116.088,116.088,0,0,0-12.086,20.37,54.555,54.555,0,0,0-3.781,11.166,25.958,25.958,0,0,0-.576,5.8,11.444,11.444,0,0,0,1.376,5.5l0.172,0.309a2.34,2.34,0,0,0,.2.248l0.481,0.572c0.339,0.331.7,0.576,1.051,0.877l1.234,0.752c0.429,0.226.877,0.425,1.314,0.64a38.154,38.154,0,0,0,5.581,1.931,97.705,97.705,0,0,0,11.68,2.31c7.873,1.164,15.83,1.7,23.777,2.164s15.918,0.648,23.882.795q11.948,0.188,23.9.226l23.9,0.017q11.953-.045,23.907-0.237l23.907-.465,23.907-.589,23.9-.649c7.968-.252,15.937-0.78,23.9-0.78h0.005l-0.268.77L286.06,213.944,267.912,201.2l-18.177-12.663-9.109-6.29-9.136-6.24-9.162-6.188-9.193-6.127c-3.076-2.02-6.154-4.038-9.249-6.021l-9.253-5.983-9.261-5.923q-2.305-1.495-4.637-2.928c-1.544-.975-3.086-1.958-4.649-2.887s-3.11-1.9-4.687-2.788c-1.571-.9-3.139-1.823-4.729-2.653l-2.378-1.28-2.4-1.176c-1.6-.831-3.2-1.441-4.8-2.155Zm2.367-6.857c1.809,0.7,3.688,1.345,5.409,2.147l2.631,1.156,2.558,1.237c1.721,0.809,3.381,1.687,5.051,2.556s3.311,1.773,4.956,2.672q4.927,2.706,9.7,5.615c3.193,1.93,6.333,3.925,9.446,5.963s6.18,4.133,9.232,6.246,6.063,4.284,9.08,6.441c6.02,4.333,12.005,8.7,17.921,13.161L244.43,177q4.415,3.369,8.8,6.777c5.828,4.564,11.648,9.134,17.41,13.778l8.626,6.984,8.556,7.07,8.512,7.12c2.84,2.37,5.632,4.9,8.434,7.32L305.746,227h-1.256c-7.963,0-15.925.844-23.89,1.267s-15.933.736-23.9,1.057l-23.914.851c-7.973.256-15.948,0.416-23.924,0.577s-15.953.265-23.932,0.327-15.959.07-23.939-.041-15.96-.313-23.935-0.682-15.946-.824-23.907-1.434-15.907-1.442-23.814-2.6A117.074,117.074,0,0,1,77.559,224a38.965,38.965,0,0,1-5.73-1.91c-0.46-.218-0.927-0.42-1.381-0.654l-1.329-.79c-0.416-.339-0.875-0.669-1.246-1.032l-0.488-.566a3.126,3.126,0,0,1-.269-0.333l-0.2-.339a12.46,12.46,0,0,1-1.659-5.94,27.116,27.116,0,0,1,.45-6.087,59.839,59.839,0,0,1,3.549-11.557,103.527,103.527,0,0,1,5.234-10.864c1.942-3.518,3.99-6.981,6.2-10.337A170.821,170.821,0,0,1,95.34,154.408a144.182,144.182,0,0,1,17.431-16.9,81.785,81.785,0,0,1,21.11-12.8,45.832,45.832,0,0,1,12.451-3.109,36.627,36.627,0,0,1,6.646.027,33.788,33.788,0,0,1,6.484,1.412Z" transform="translate(-65.229 -121.469)"/><circle class="cls-7" cx="147.437" cy="82.065" r="22.05"/></svg>