<svg id="Layer_1" data-name="Layer 1" xmlns="http://www.w3.org/2000/svg" xmlns:xlink="http://www.w3.org/1999/xlink" viewBox="0 0 492.078 229.863"><defs><style>.cls-1{fill:none;}.cls-2{clip-path:url(#clip-path);}.cls-3{fill:#fff;}.cls-3,.cls-4{stroke:#000;stroke-miterlimit:10;}.cls-4{stroke-width:0.832px;}.cls-5{clip-path:url(#clip-path-2);}</style><clipPath id="clip-path" transform="translate(-65.229 -121.469)"><path class="cls-1" d="M464.19,127.376c39.525-14.492,104.031,72.16,90.8,92S318.065,227.2,318.065,227.2,428.11,140.605,464.19,127.376Z"/></clipPath><clipPath id="clip-path-2" transform="translate(-65.229 -121.469)"><path class="cls-1" d="M158.345,126.5c-39.525-14.492-104.031,72.16-90.8,92s236.927,7.817,236.927,7.817S194.425,139.726,158.345,126.5Z"/></clipPath></defs><title>eyes-and-mouth</title><g class="cls-2"><circle class="cls-3" cx="356.612" cy="71.93" r="44.753"/></g><path d="M463.072,123.925a33.786,33.786,0,0,1,6.484-1.412,36.626,36.626,0,0,1,6.646-.027,45.833,45.833,0,0,1,12.451,3.109,81.785,81.785,0,0,1,21.11,12.8,144.182,144.182,0,0,1,17.431,16.9,170.818,170.818,0,0,1,14.646,19.181c2.214,3.356,4.262,6.819,6.2,10.337a103.526,103.526,0,0,1,5.234,10.864,59.838,59.838,0,0,1,3.549,11.557,27.115,27.115,0,0,1,.45,6.087,12.459,12.459,0,0,1-1.659,5.94l-0.2.339a3.128,3.128,0,0,1-.269.333l-0.488.566c-0.37.362-.83,0.693-1.246,1.032l-1.329.79c-0.454.234-.921,0.435-1.381,0.654a38.964,38.964,0,0,1-5.73,1.91A117.062,117.062,0,0,1,533.2,227.2c-7.907,1.16-15.853,2-23.814,2.6s-15.931,1.078-23.907,1.434-15.955.569-23.935,0.68-15.96.111-23.939,0.038-15.956-.179-23.932-0.333-15.951-.334-23.924-0.59l-23.914-.877c-7.97-.321-15.938-0.509-23.9-0.945S326.008,228,318.046,228h-1.256l0.982-1.012c2.8-2.419,5.594-4.929,8.434-7.3l8.512-7.161,8.556-7.09,8.626-6.994c5.761-4.644,11.581-9.219,17.41-13.783q4.375-3.419,8.8-6.779l8.849-6.717c5.916-4.459,11.9-8.828,17.921-13.162,3.017-2.157,6.03-4.322,9.08-6.441s6.12-4.212,9.232-6.247,6.254-4.032,9.446-5.963,6.418-3.811,9.7-5.615c1.645-.9,3.273-1.818,4.956-2.672s3.33-1.747,5.051-2.556l2.558-1.237,2.631-1.156c1.72-.8,3.6-1.444,5.409-2.147Zm2.367,6.857c-1.6.713-3.2,1.323-4.8,2.155l-2.4,1.176-2.378,1.28c-1.59.83-3.158,1.75-4.729,2.653-1.577.885-3.128,1.849-4.687,2.788s-3.1,1.912-4.649,2.887q-2.331,1.434-4.637,2.928L427.9,152.57l-9.253,5.983c-3.095,1.983-6.172,4-9.249,6.021l-9.193,6.126-9.162,6.187-9.136,6.238-9.109,6.285-18.177,12.653-18.148,12.72L318.359,227.71l-0.268-.71H318.1c7.963,0,15.933.468,23.9,0.72l23.9,0.658,23.907,0.554,23.907,0.448q11.954,0.183,23.907.229l23.9-.022q11.951-.053,23.9-0.228c7.964-.147,15.93-0.338,23.882-0.8s15.9-1,23.777-2.164a97.706,97.706,0,0,0,11.68-2.311,38.152,38.152,0,0,0,5.581-1.931c0.437-.215.885-0.414,1.314-0.64l1.234-.752c0.346-.3.711-0.546,1.051-0.877l0.481-.572a2.336,2.336,0,0,0,.2-0.248l0.172-.309a11.444,11.444,0,0,0,1.376-5.5,25.958,25.958,0,0,0-.576-5.8,54.557,54.557,0,0,0-3.781-11.166,116.086,116.086,0,0,0-12.086-20.37,167.4,167.4,0,0,0-15.266-18.106,139.839,139.839,0,0,0-17.751-15.44,97.135,97.135,0,0,0-9.8-6.268,63.626,63.626,0,0,0-10.4-4.718,39.426,39.426,0,0,0-10.79-2.207,29.823,29.823,0,0,0-5.293.258,25.848,25.848,0,0,0-5.121,1.382Z" transform="translate(-65.229 -121.469)"/><circle class="cls-4" cx="346.342" cy="82.065" r="22.05"/><g class="cls-5"><circle class="cls-3" cx="135.466" cy="71.051" r="44.753"/></g><circle class="cls-4" cx="147.437" cy="82.065" r="22.05"/><path d="M157.227,129.948a25.847,25.847,0,0,0-5.121-1.382,29.822,29.822,0,0,0-5.293-.258,39.426,39.426,0,0,0-10.79,2.207,63.628,63.628,0,0,0-10.4,4.718,97.137,97.137,0,0,0-9.8,6.268,139.836,139.836,0,0,0-17.751,15.44,167.4,167.4,0,0,0-15.266,18.106,116.088,116.088,0,0,0-12.086,20.37,54.555,54.555,0,0,0-3.781,11.166,25.957,25.957,0,0,0-.576,5.8,11.444,11.444,0,0,0,1.376,5.5l0.172,0.309a2.341,2.341,0,0,0,.2.248l0.481,0.572c0.339,0.331.7,0.576,1.051,0.877l1.234,0.752c0.429,0.226.877,0.425,1.314,0.64a38.154,38.154,0,0,0,5.581,1.931,97.708,97.708,0,0,0,11.68,2.31c7.873,1.164,15.83,1.7,23.777,2.164s15.918,0.648,23.882.795q11.948,0.189,23.9.226l23.9,0.017q11.953-.045,23.907-0.237l23.907-.465,23.907-.589,23.9-.649c7.968-.252,15.937-0.78,23.9-0.78h0.005l-0.268.77L286.06,213.944,267.912,201.2l-18.177-12.663-9.109-6.29-9.136-6.24-9.162-6.188-9.193-6.127c-3.076-2.02-6.154-4.038-9.249-6.021l-9.253-5.983-9.261-5.923q-2.305-1.495-4.637-2.928c-1.544-.975-3.086-1.958-4.649-2.887s-3.11-1.9-4.687-2.788c-1.571-.9-3.139-1.823-4.729-2.653l-2.378-1.28-2.4-1.176c-1.6-.831-3.2-1.441-4.8-2.155Zm2.367-6.857c1.809,0.7,3.688,1.345,5.409,2.147l2.631,1.156,2.558,1.237c1.721,0.809,3.381,1.687,5.051,2.556s3.311,1.773,4.956,2.672q4.927,2.706,9.7,5.615c3.193,1.931,6.333,3.925,9.446,5.963s6.18,4.133,9.232,6.246,6.063,4.284,9.08,6.441c6.02,4.333,12.005,8.7,17.921,13.161L244.43,177q4.415,3.369,8.8,6.777c5.828,4.564,11.648,9.134,17.41,13.778l8.626,6.984,8.556,7.07,8.512,7.12c2.84,2.37,5.632,4.9,8.434,7.32L305.746,227h-1.256c-7.963,0-15.925.844-23.89,1.267s-15.933.736-23.9,1.057l-23.914.851c-7.973.256-15.948,0.416-23.924,0.577s-15.953.265-23.932,0.327-15.959.07-23.939-.041-15.96-.313-23.935-0.682-15.946-.824-23.907-1.434-15.907-1.442-23.814-2.6A117.065,117.065,0,0,1,77.559,224a38.964,38.964,0,0,1-5.73-1.91c-0.46-.218-0.927-0.42-1.381-0.654l-1.329-.79c-0.416-.339-0.875-0.669-1.246-1.032l-0.488-.566a3.128,3.128,0,0,1-.269-0.333l-0.2-.339a12.46,12.46,0,0,1-1.659-5.94,27.116,27.116,0,0,1,.45-6.087,59.839,59.839,0,0,1,3.549-11.557,103.523,103.523,0,0,1,5.234-10.864c1.942-3.518,3.99-6.981,6.2-10.337A170.819,170.819,0,0,1,95.34,154.408a144.184,144.184,0,0,1,17.431-16.9,81.784,81.784,0,0,1,21.11-12.8,45.833,45.833,0,0,1,12.451-3.109,36.626,36.626,0,0,1,6.646.027,33.787,33.787,0,0,1,6.484,1.412Z" transform="translate(-65.229 -121.469)"/><path d="M174.564,350.663s0.471-1.14,1.533-3.151a75.239,75.239,0,0,1,5.293-8.349,84.946,84.946,0,0,1,10.171-11.634,92.038,92.038,0,0,1,16.054-12.29,97.067,97.067,0,0,1,22.051-9.745,90.734,90.734,0,0,1,12.9-2.847c2.237-.238,4.5-0.546,6.783-0.691s4.6-.294,6.925-0.272l3.5-.026,3.5,0.132c2.246,0.053,4.64.245,7.03,0.427,2.409,0.148,4.732.44,7.1,0.68,2.37,0.223,4.719.578,7.091,0.878,9.464,1.291,18.971,2.995,28.418,4.9s18.834,4.023,28.027,6.26c9.2,2.218,18.2,4.588,26.887,6.933,17.366,4.738,33.474,9.468,47.217,13.716,27.478,8.529,45.581,14.847,45.581,14.847l-0.291.9s-18.363-5.471-46.157-12.709c-6.952-1.795-14.475-3.76-22.458-5.735s-16.411-4-25.147-6.013-17.79-3.948-26.994-5.854S321,317.352,311.6,315.793s-18.81-2.9-28.074-3.837c-2.315-.21-4.622-0.478-6.912-0.612-2.286-.151-4.588-0.358-6.8-0.413-2.223-.091-4.413-0.2-6.729-0.175l-3.315-.011-3.257.126a139.137,139.137,0,0,0-24.566,3.3,97.6,97.6,0,0,0-21.03,7.176,93.711,93.711,0,0,0-8.741,4.777c-1.377.8-2.637,1.7-3.907,2.512-1.221.882-2.446,1.7-3.56,2.581a94.845,94.845,0,0,0-11.091,9.809,79.609,79.609,0,0,0-6.256,7.294c-1.347,1.779-1.964,2.777-1.964,2.777Z" transform="translate(-65.229 -121.469)"/></svg>